<?xml version="1.0" encoding="UTF-8"?>
<svg width="821px" height="600px" viewBox="0 0 821 600" version="1.1" xmlns="http://www.w3.org/2000/svg" xmlns:xlink="http://www.w3.org/1999/xlink">
    <!-- Generator: Sketch 59.1 (86144) - https://sketch.com -->
    <title>team work</title>
    <desc>Created with Sketch.</desc>
    <defs>
        <polygon id="path-1" points="0 565 695.75681 565 695.75681 0.491952507 0 0.491952507"></polygon>
    </defs>
    <g id="team-work" stroke="none" stroke-width="1" fill="none" fill-rule="evenodd">
        <g id="Group-72" transform="translate(58.000000, 13.000000)">
            <g id="Group-66">
                <path d="M83.761101,478.545012 C83.761101,478.545012 142.777873,485.917591 163.271455,504.7549 C183.762799,523.592208 213.271558,565.363449 251.796239,563.724352 C290.320921,562.086001 311.63359,526.86891 316.551841,509.669207 C321.470091,492.469504 323.110503,459.707703 314.093088,462.164484 C305.075673,464.622011 304.255095,497.383811 327.207429,509.669207 C350.158271,521.953858 382.127275,500.659022 392.782117,469.536318 C403.436959,438.413613 419.832123,393.366417 456.71714,387.633679 C493.602902,381.900942 651.800792,333.580025 669.83413,303.27426 C687.867468,272.969985 694.424638,267.237248 674.752381,248.399939 C655.080123,229.562631 632.128535,198.439926 646.883287,182.877828 C661.636548,167.316476 683.768304,217.277235 637.867365,234.476938 C591.96568,251.675896 574.751429,193.525619 566.554593,168.135652 C558.356265,142.745685 573.111017,82.1356451 506.717242,73.1269512 C440.322722,64.1182573 357.537513,31.3564565 328.847095,14.9766741 C300.156677,-1.40385356 253.435159,-3.04220449 200.156471,12.5191478 C146.877037,28.0812454 115.545847,39.2254604 99.3356862,32.9948074 C88.6793518,28.8989301 92.7770238,15.7951042 113.26986,19.0710607 C133.76195,22.3477625 158.352458,66.5750383 128.844445,78.860434 C99.3356862,91.1458298 38.6792489,69.8502493 35.3999177,140.286668" id="Stroke-1" stroke="#4D8854" stroke-width="3.296" stroke-linecap="round" stroke-linejoin="round" stroke-dasharray="9.888999999999999,0,0"></path>
                <path d="M319.829008,256.589458 C320.136352,257.817103 324.440661,269.489049 326.900159,269.181206 C329.358166,268.874108 347.493703,267.031522 349.031169,259.967532 C350.567143,252.903541 354.564108,222.497149 354.256018,223.418442 C353.948674,224.339735 335.813883,241.23234 334.276417,242.153633 C332.739696,243.075672 319.829008,256.589458 319.829008,256.589458" id="Fill-3" fill="#FFDAB6"></path>
                <mask id="mask-2" fill="white">
                    <use xlink:href="#path-1"></use>
                </mask>
                <g id="Clip-6"></g>
                <polygon id="Fill-5" fill="#DCDCE2" mask="url(#mask-2)" points="0 472.811827 207.789196 472.811827 207.789196 142.948727 0 142.948727"></polygon>
                <path d="M0,472.811976 L188.70328,472.811976 C189.480592,464.606059 189.274701,454.560538 186.425801,445.169463 C180.27892,424.899529 139.704283,367.771917 78.842701,340.129404 C17.981119,312.486891 74.5398842,275.017999 91.7533891,219.118777 C107.289929,168.664575 87.2730289,146.742873 83.2253376,142.948876 L0,142.948876 L0,472.811976 Z" id="Fill-7" fill="#9292A8" mask="url(#mask-2)"></path>
                <polygon id="Fill-8" fill="#DCDCE2" mask="url(#mask-2)" points="228.845248 197.619558 538.069916 197.619558 538.069916 40.9811346 228.845248 40.9811346"></polygon>
                <path d="M538.069916,197.619484 L538.069916,132.047432 C515.574868,112.312683 481.166508,103.859299 457.536823,101.793098 C408.355807,97.4929861 388.68355,136.8067 315.525968,147.863705 C242.369132,158.92071 228.845248,120.221937 228.845248,120.221937 L228.845248,197.619484 L538.069916,197.619484 Z" id="Fill-9" fill="#E0B594" mask="url(#mask-2)"></path>
                <polygon id="Fill-10" fill="#DCDCE2" mask="url(#mask-2)" points="447.392977 475.269354 695.75681 475.269354 695.75681 266.417625 447.392977 266.417625"></polygon>
                <path d="M695.756661,266.417774 L629.754526,266.417774 C596.718024,314.198289 579.894668,388.602379 558.356713,399.098856 C524.749536,415.479384 511.011555,389.632497 478.028764,387.634127 C465.435864,386.870109 454.977214,390.013388 447.392828,393.591224 L447.392828,475.269503 L695.756661,475.269503 L695.756661,266.417774 Z" id="Fill-11" fill="#D6D361" mask="url(#mask-2)"></path>
                <polygon id="Fill-12" fill="#FFFFFF" mask="url(#mask-2)" points="5.22559486 171.820376 202.564347 171.820376 202.564347 149.09217 5.22559486 149.09217"></polygon>
                <polygon id="Fill-13" fill="#FFFFFF" mask="url(#mask-2)" points="234.992875 68.6229024 531.923035 68.6229024 531.923035 44.6663061 234.992875 44.6663061"></polygon>
                <polygon id="Fill-14" fill="#FFFFFF" mask="url(#mask-2)" points="452.92517 293.445198 690.223871 293.445198 690.223871 271.331187 452.92517 271.331187"></polygon>
                <path d="M21.4651473,159.944866 C21.4651473,163.564444 18.5289672,166.49827 14.9079768,166.49827 C11.2854945,166.49827 8.35006045,163.564444 8.35006045,159.944866 C8.35006045,156.326779 11.2854945,153.392953 14.9079768,153.392953 C18.5289672,153.392953 21.4651473,156.326779 21.4651473,159.944866" id="Fill-15" fill="#D7D7E6" mask="url(#mask-2)"></path>
                <path d="M42.3664823,159.944866 C42.3664823,163.564444 39.4310482,166.49827 35.8100579,166.49827 C32.1875756,166.49827 29.2513955,163.564444 29.2513955,159.944866 C29.2513955,156.326779 32.1875756,153.392953 35.8100579,153.392953 C39.4310482,153.392953 42.3664823,156.326779 42.3664823,159.944866" id="Fill-16" fill="#D7D7E6" mask="url(#mask-2)"></path>
                <path d="M63.2684887,159.944866 C63.2684887,163.564444 60.3330547,166.49827 56.7120643,166.49827 C53.088836,166.49827 50.1534019,163.564444 50.1534019,159.944866 C50.1534019,156.326779 53.088836,153.392953 56.7120643,153.392953 C60.3330547,153.392953 63.2684887,156.326779 63.2684887,159.944866" id="Fill-17" fill="#D7D7E6" mask="url(#mask-2)"></path>
                <path d="M252.205559,57.1570547 C252.205559,60.7766326 249.269379,63.7097131 245.649134,63.7097131 C242.025906,63.7097131 239.090472,60.7766326 239.090472,57.1570547 C239.090472,53.5389677 242.025906,50.6051418 245.649134,50.6051418 C249.269379,50.6051418 252.205559,53.5389677 252.205559,57.1570547" id="Fill-18" fill="#E0B594" mask="url(#mask-2)"></path>
                <path d="M273.107565,57.1570547 C273.107565,60.7766326 270.171385,63.7097131 266.550395,63.7097131 C262.927913,63.7097131 259.993224,60.7766326 259.993224,57.1570547 C259.993224,53.5389677 262.927913,50.6051418 266.550395,50.6051418 C270.171385,50.6051418 273.107565,53.5389677 273.107565,57.1570547" id="Fill-19" fill="#E0B594" mask="url(#mask-2)"></path>
                <path d="M294.009646,57.1570547 C294.009646,60.7766326 291.073466,63.7097131 287.452476,63.7097131 C283.829994,63.7097131 280.893814,60.7766326 280.893814,57.1570547 C280.893814,53.5389677 283.829994,50.6051418 287.452476,50.6051418 C291.073466,50.6051418 294.009646,53.5389677 294.009646,57.1570547" id="Fill-20" fill="#E0B594" mask="url(#mask-2)"></path>
                <path d="M469.832376,281.36508 C469.832376,284.983913 466.89545,287.917739 463.274459,287.917739 C459.652723,287.917739 456.716543,284.983913 456.716543,281.36508 C456.716543,277.746993 459.652723,274.813168 463.274459,274.813168 C466.89545,274.813168 469.832376,277.746993 469.832376,281.36508" id="Fill-21" fill="#A4A532" mask="url(#mask-2)"></path>
                <path d="M490.73289,281.36508 C490.73289,284.983913 487.797456,287.917739 484.176466,287.917739 C480.553983,287.917739 477.617803,284.983913 477.617803,281.36508 C477.617803,277.746993 480.553983,274.813168 484.176466,274.813168 C487.797456,274.813168 490.73289,277.746993 490.73289,281.36508" id="Fill-22" fill="#A4A532" mask="url(#mask-2)"></path>
                <path d="M511.634971,281.36508 C511.634971,284.983913 508.699537,287.917739 505.078547,287.917739 C501.455318,287.917739 498.519884,284.983913 498.519884,281.36508 C498.519884,277.746993 501.455318,274.813168 505.078547,274.813168 C508.699537,274.813168 511.634971,277.746993 511.634971,281.36508" id="Fill-23" fill="#A4A532" mask="url(#mask-2)"></path>
                <path d="M484.408093,194.54806 C482.114948,200.511121 485.075745,208.268317 482.646832,213.579168 C480.173906,218.960085 473.363848,219.339485 470.917032,224.321622 C462.602331,241.238825 472.37617,244.585593 471.497405,257.347288 C470.508234,271.608693 455.845237,279.151965 468.630601,293.843456 C479.158626,305.943251 500.050562,303.657908 504.495115,287.358627 C504.14525,286.89649 504.135552,286.901708 504.469752,287.379498 C529.044594,303.000481 547.315154,259.88308 517.99662,251.803133 C528.567913,244.077242 533.019179,227.841319 520.734369,218.684294 C532.156826,210.532044 531.186305,194.770184 519.628826,187.637618 C517.766112,186.486002 525.143861,171.150501 509.8617,170.07715 C498.842819,169.302697 487.626999,186.202757 484.408093,194.54806" id="Fill-24" fill="#F7CC45" mask="url(#mask-2)"></path>
                <path d="M543.915347,269.301361 L517.168208,267.031672 C518.746704,261.676098 512.135823,250.69214 506.651372,241.405418 L543.238742,216.56778 C543.238742,216.56778 537.308941,257.371513 543.915347,269.301361" id="Fill-25" fill="#FAC8BB" mask="url(#mask-2)"></path>
                <path d="M126.794863,300.817352 C125.568471,300.729896 66.5494611,312.284817 59.9907987,319.245945 C53.4321363,326.207073 16.5471203,458.06898 17.7764965,457.66051 C19.0066186,457.251295 24.7432103,450.699382 34.9900013,454.384553 C45.2367923,458.07047 47.2852553,462.574817 47.2852553,462.574817 L70.6448952,404.83301 L79.6630559,473.221862 L168.598876,473.221862 C168.598876,473.221862 180.892638,426.94702 183.76168,409.747317 C186.631468,392.547614 187.860844,384.767311 187.860844,384.767311 C187.860844,384.767311 235.81323,440.871513 238.681525,441.279237 C241.549075,441.689197 332.124561,341.76768 332.124561,341.76768 C332.124561,341.76768 329.256265,336.035688 324.33876,331.531341 C319.420509,327.026249 314.502259,326.207073 314.502259,326.207073 L241.139532,390.090833 C241.139532,390.090833 202.616342,320.06363 198.107635,315.969243 C193.598181,311.874857 132.532947,301.227812 126.794863,300.817352" id="Fill-26" fill="#4E9EAD" mask="url(#mask-2)"></path>
                <path d="M18.9044939,456.533641 C17.5572527,457.387849 12.1421788,464.826022 12.7561209,468.204841 C13.371555,471.582915 19.518436,493.081985 23.2080566,493.696925 C26.8954392,494.311121 33.6577543,489.397559 38.5767511,483.561213 C43.4942559,477.725613 43.8016,474.346794 43.8016,474.346794 C43.8016,474.346794 47.4904746,472.504953 48.1051627,470.661622 C48.7198508,468.818291 47.2853299,462.574221 47.2853299,462.574221 C47.2853299,462.574221 34.8878765,446.397928 18.9044939,456.533641" id="Fill-27" fill="#894D33" mask="url(#mask-2)"></path>
                <path d="M316.755493,326.308594 C316.755493,326.308594 320.751712,318.323311 321.059802,314.023199 C321.3664,309.723086 325.055275,286.381431 325.055275,279.623792 C325.055275,272.867644 326.900085,265.802908 328.436805,267.032044 C329.972779,268.260435 336.428496,281.467123 338.580651,294.058871 C340.732059,306.65211 339.501191,322.623423 337.965217,326.615692 C336.428496,330.608706 329.666927,337.058502 329.666927,337.058502 C329.666927,337.058502 324.747931,330.916549 316.755493,326.308594" id="Fill-28" fill="#894D33" mask="url(#mask-2)"></path>
                <path d="M113.684103,309.827962 L114.018302,278.752216 C114.018302,278.752216 100.262418,270.773641 101.24935,262.662388 C102.234045,254.551135 106.657711,252.495369 109.660283,254.719591 C112.659871,256.943813 105.188875,230.222592 119.632553,222.78442 C134.073994,215.350719 155.54854,214.571794 158.548875,216.796016 C161.552939,219.019492 160.341466,226.201253 160.341466,226.201253 C160.341466,226.201253 166.674842,266.482474 160.419794,281.279809 C154.16773,296.080125 146.061904,293.124683 146.061904,293.124683 L147.44719,310.991504 C147.44719,310.991504 142.26337,322.084288 131.946457,320.158219 C121.631035,318.231405 113.684103,309.827962 113.684103,309.827962" id="Fill-29" fill="#894D33" mask="url(#mask-2)"></path>
                <path d="M146.062127,293.124534 C146.062127,293.124534 135.577368,290.499297 129.86987,285.242113 C129.86987,285.242113 134.438256,291.884218 140.409832,296.709825 C145.741356,301.0159 146.561934,300.75278 146.561934,300.75278 L146.062127,293.124534 Z" id="Fill-30" fill="#663929" mask="url(#mask-2)"></path>
                <path d="M102.0289,258.783417 C102.0289,258.783417 92.1856849,234.973661 95.3993698,223.861497 C98.6063408,212.753061 118.704553,201.239136 131.674174,201.416537 C144.641556,201.593938 158.699563,207.781359 163.751344,207.293879 C168.801633,206.807144 169.16418,205.246313 169.16418,205.246313 C169.16418,205.246313 169.987743,211.687164 166.455524,218.444802 C162.930019,225.202441 160.341466,226.201253 160.341466,226.201253 C160.341466,226.201253 150.319215,223.464208 142.206675,226.539657 C134.088167,229.611379 125.562354,241.641108 123.462418,243.625317 C121.35726,245.612507 119.66836,250.816022 119.66836,250.816022 C119.66836,250.816022 120.438212,264.653305 120.247987,266.911069 C120.130868,268.342203 115.273042,269.226227 114.947048,266.352777 C114.616579,263.481563 110.643486,255.218997 109.660283,254.719591 C108.676334,254.221675 104.50108,253.758047 102.0289,258.783417" id="Fill-31" fill="#353535" mask="url(#mask-2)"></path>
                <path d="M140.553955,276.01055 C140.553955,276.01055 146.539704,277.552001 153.34081,276.971348 C158.044219,276.56586 159.895743,273.53588 159.895743,273.53588 C159.895743,273.53588 157.294508,284.130748 151.456463,284.436355 C145.628116,284.741216 140.553955,276.01055 140.553955,276.01055" id="Fill-32" fill="#FFFFFF" mask="url(#mask-2)"></path>
                <path d="M422.290652,105.887932 C422.290652,105.887932 319.419167,95.6523384 314.911951,97.699159 C310.404736,99.7452342 247.698343,189.430412 253.026884,199.666751 C258.353932,209.904581 319.420659,258.637695 319.420659,258.637695 L335.404041,241.027286 C335.404041,241.027286 293.188993,199.666751 294.009572,196.390795 C294.83015,193.114093 316.141327,164.448915 316.141327,164.448915 L336.223874,197.619185 L466.963707,196.80001 C466.963707,196.80001 432.537443,115.716547 422.290652,105.887932" id="Fill-33" fill="#86B1F2" mask="url(#mask-2)"></path>
                <path d="M375.088424,70.0156497 L385.472476,101.839014 C385.472476,101.839014 374.428977,139.822965 363.648064,138.40972 C354.612,137.225307 354.222598,103.775518 354.222598,103.775518 C354.222598,103.775518 355.85928,85.4927737 352.934289,76.9961577 C350.010791,68.4980508 375.088424,70.0156497 375.088424,70.0156497" id="Fill-34" fill="#FFDAB6" mask="url(#mask-2)"></path>
                <path d="M379.555581,83.7084024 L375.088648,70.0157243 C375.088648,70.0157243 350.011015,68.4981253 352.933767,76.9962322 C354.870333,82.6238707 354.804687,92.5359683 354.54434,98.5951834 C361.127619,95.5905462 372.300172,90.4690224 379.555581,83.7084024" id="Fill-35" fill="#E2A69A" mask="url(#mask-2)"></path>
                <path d="M352.934066,76.995934 C350.010567,68.4985726 375.088201,70.0154261 375.088201,70.0154261 L375.921461,72.5079855 C375.517886,74.3490805 374.909165,75.961343 374.061731,77.2694894 C369.691776,83.992095 361.88658,88.9265277 354.658773,90.4530712 C354.564779,85.611066 354.132857,80.4783615 352.934066,76.995934" id="Fill-36" fill="#D68954" mask="url(#mask-2)"></path>
                <path d="M359.41992,27.2449261 C360.061464,26.6702361 381.095882,63.5838179 375.445078,78.3602823 C369.797258,93.125566 351.747509,104.494141 341.350776,98.8486135 C329.849991,92.6082704 313.287727,50.4911728 324.352859,33.1774261 C335.421721,15.862934 359.41992,27.2449261 359.41992,27.2449261" id="Fill-37" fill="#FFDAB6" mask="url(#mask-2)"></path>
                <path d="M321.830922,9.91120317 C334.825906,7.51405277 345.56206,11.7105567 349.68062,13.6820937 C355.39334,12.1272256 364.016877,12.1480963 376.781353,21.7165726 C392.481263,33.486909 392.496929,53.5302467 384.965507,66.4097124 C377.423642,79.2847058 381.526536,88.9970409 381.526536,88.9970409 L377.75635,84.6417704 C374.934305,81.3240726 372.768723,77.4734261 371.572916,73.2851214 C370.85752,70.7739274 370.32116,67.9615989 370.452453,65.4161174 C370.806794,58.7024565 360.996401,58.2947322 356.777134,54.5305501 C353.522421,51.6325026 350.088671,43.3878259 344.851141,38.5450752 L339.63972,35.3362032 C339.63972,35.3362032 329.42799,32.4269749 322.512003,37.200405 C315.598253,41.9723443 305.162729,12.9851609 321.830922,9.91120317" id="Fill-38" fill="#6B4C35" mask="url(#mask-2)"></path>
                <path d="M360.093019,61.2744736 C361.936337,66.0672836 365.675938,69.0935369 368.448749,68.0291306 C371.220813,66.9647243 371.974253,62.2173826 370.125713,57.4230818 C368.280157,52.628781 364.542794,49.6032731 361.768491,50.666934 C358.997919,51.7283588 358.248208,56.4779367 360.093019,61.2744736" id="Fill-39" fill="#FFDAB6" mask="url(#mask-2)"></path>
                <path d="M351.935347,79.916343 L336.564414,85.2130317 C336.564414,85.2130317 338.931411,90.9211715 345.760864,88.7878865 C354.083771,86.1850106 351.935347,79.916343 351.935347,79.916343" id="Fill-40" fill="#FFFFFF" mask="url(#mask-2)"></path>
                <path d="M327.955424,25.3494927 L328.118048,25.3398028 C328.015848,25.3472566 327.955424,25.3494927 327.955424,25.3494927" id="Fill-41" fill="#6A3F2C" mask="url(#mask-2)"></path>
                <path d="M376.388072,317.094697 C376.388072,317.094697 371.162477,311.566194 369.011069,307.266082 C366.85966,302.96597 367.166259,280.852704 368.702979,274.710007 C370.239699,268.567309 377.310104,252.289644 378.232136,255.053522 C379.154168,257.817401 380.691635,284.230778 382.534953,293.753041 C384.379763,303.273813 387.45395,308.187375 386.531918,308.494472 L376.388072,317.094697 Z" id="Fill-42" fill="#FAC8BB" mask="url(#mask-2)"></path>
                <polygon id="Fill-43" fill="#0A4C57" mask="url(#mask-2)" points="514.09432 342.177864 489.913356 449.878939 509.995902 451.51729 543.603079 364.701835"></polygon>
                <path d="M489.913356,449.879088 C489.913356,449.879088 475.569639,455.203356 463.683928,462.164484 C451.797471,469.127103 438.682385,474.452116 445.65059,475.269801 C452.61805,476.088231 492.3736,475.269801 496.472018,472.81302 C500.568944,470.356239 503.848275,466.261107 505.896738,459.299234 C507.945947,452.336615 505.896738,451.517439 505.896738,451.517439 L489.913356,449.879088 Z" id="Fill-44" fill="#FAC8BB" mask="url(#mask-2)"></path>
                <polygon id="Fill-45" fill="#083A3F" mask="url(#mask-2)" points="535.816682 474.859542 571.062032 414.660954 656.309723 429.403876 666.965312 476.087933"></polygon>
                <path d="M374.748929,318.016958 L386.531694,308.494696 C386.531694,308.494696 449.749829,346.681391 452.209327,344.634571 C454.66808,342.58775 502.207938,277.473363 512.865019,269.693805 C523.521353,261.912757 552.619077,252.904808 555.077829,252.085633 C557.537327,251.265712 588.274716,286.485039 596.881842,302.046391 C605.488967,317.606998 656.310395,429.403951 656.310395,429.403951 L571.061958,414.661028 L575.161122,399.100422 L538.684157,364.701761 C538.684157,364.701761 524.341186,356.920712 519.832478,351.187974 C515.323771,345.454491 512.455475,338.491873 512.455475,338.491873 C512.455475,338.491873 458.356208,383.129109 452.618125,383.947539 C446.879295,384.76746 374.748929,318.016958 374.748929,318.016958" id="Fill-46" fill="#0A4C57" mask="url(#mask-2)"></path>
                <path d="M515.938161,257.817103 C514.094096,254.131931 508.998302,245.383376 506.651447,241.405269 L543.238817,216.568376 C543.238817,216.568376 540.818855,233.197861 540.783794,248.329873 C527.509814,252.777571 528.276682,258.473785 515.938161,257.817103" id="Fill-47" fill="#E2A69A" mask="url(#mask-2)"></path>
                <path d="M501.019293,244.81368 L498.715704,239.456615 L492.914212,223.626925 C492.083936,221.108278 491.543846,217.626596 492.261479,215.060989 C493.112643,211.984049 493.605736,207.022783 492.116759,201.614287 C488.128,187.122559 494.142096,179.020995 494.142096,179.020995 C501.82346,164.944445 522.077582,163.659406 522.077582,163.659406 C547.202958,163.291187 550.85901,187.383443 550.85901,187.383443 C555.95928,203.231767 543.988527,217.467829 543.965402,217.489445 C542.449569,219.288799 542.459267,222.049696 541.812502,224.194907 C541.120977,226.48994 539.993055,228.66273 538.54809,230.559729 C535.29263,234.830771 530.96072,238.995224 526.40054,241.712143 C522.077582,244.288185 513.563704,247.202631 507.403395,247.545507 C504.845428,247.691602 502.338186,247.883911 501.019293,244.81368" id="Fill-48" fill="#FAC8BB" mask="url(#mask-2)"></path>
                <path d="M541.787437,227.015509 C541.151861,215.584322 540.909417,216.302871 540.909417,216.302871 C540.418562,212.982937 534.352993,220.613418 534.192607,216.258148 C533.485417,196.31171 525.616067,187.315687 522.679887,185.97698 C514.724003,182.33355 506.532388,181.676868 500.181109,183.245153 C490.22152,185.703425 491.504607,199.080061 491.504607,199.080061 C479.646498,150.58696 535.451823,162.622653 535.451823,162.622653 C562.586125,167.844058 561.508183,193.138616 561.508183,193.138616 C566.573392,219.881453 541.042948,237.178055 541.042948,237.178055 L541.787437,227.015509 Z" id="Fill-49" fill="#F7CC45" mask="url(#mask-2)"></path>
                <path d="M539.773886,223.244544 C540.718297,223.874392 541.890979,224.193416 543.320278,224.072664 C547.194902,223.760349 550.172857,219.916411 549.974426,215.503001 C549.767789,211.091081 546.472046,207.770402 542.596677,208.079735 C540.757088,208.231048 539.130104,209.173957 537.941011,210.590929 C536.208844,212.660111 536.390117,216.258073 536.993615,218.69771 C537.476265,220.65583 538.370696,222.301635 539.773886,223.244544" id="Fill-50" fill="#F79F7D" mask="url(#mask-2)"></path>
                <path d="M541.306652,212.286153 C541.379758,209.956087 546.215951,211.856813 545.591565,213.206701 C545.231257,213.984135 544.447231,214.593112 543.834781,215.161839 C543.003012,215.937782 542.610626,216.628007 542.568105,217.78335 C542.55617,217.916773 542.554678,218.323752 542.699398,218.409471 C543.333482,218.78738 545.173816,216.396938 545.574408,215.886351 C546.368131,214.895737 546.380067,213.287947 545.888466,212.153475 C545.370009,210.94521 544.522575,210.42046 543.207411,210.589662 C542.15334,210.718613 541.085096,210.864708 541.24026,212.166146 C541.241006,212.195216 541.299938,212.403923 541.306652,212.286153" id="Fill-51" fill="#E98A6F" mask="url(#mask-2)"></path>
                <path d="M542.971233,214.593336 C542.445317,214.136416 542.001459,214.575447 541.532237,214.963046 C541.091362,215.333501 540.869806,215.827689 540.782526,216.382254 C540.593793,217.604681 540.862346,219.202036 541.625484,220.208303 C542.240172,221.014061 543.208455,221.476199 544.223735,221.377063 C545.63886,221.239912 545.977536,219.970526 545.951426,218.774932 C545.94695,218.456654 545.914127,217.699345 545.59634,217.52418 C545.238269,217.326654 545.036108,217.870783 544.827979,218.110051 C544.531079,218.424602 544.074539,218.575915 543.658282,218.641509 C542.85859,218.762261 542.046217,218.403732 541.500159,217.840222 C541.40542,217.741086 541.312918,217.62108 541.259208,217.496601 C541.312918,218.276271 541.365883,218.442491 541.418848,218.014642 C541.465098,217.808171 541.547156,217.620334 541.651594,217.437716 C541.942526,216.885387 542.464713,216.474681 542.798912,215.935024 C542.959298,215.685321 543.229343,214.823659 542.971233,214.593336" id="Fill-52" fill="#E98A6F" mask="url(#mask-2)"></path>
                <path d="M539.641996,224.062751 C539.733006,225.373879 540.867642,226.368964 542.177585,226.278028 C543.489019,226.192309 544.478189,225.059327 544.390909,223.751926 C544.301392,222.440053 543.172723,221.447949 541.859797,221.535158 C540.547617,221.623113 539.556954,222.759077 539.641996,224.062751" id="Fill-53" fill="#FFFFFF" mask="url(#mask-2)"></path>
                <path d="M571.517379,193.178121 C573.998511,199.065153 571.277173,206.910305 573.882884,212.142145 C576.519925,217.444051 583.334459,217.613253 585.941662,222.511908 C594.783771,239.159282 585.121829,242.812402 586.398948,255.536828 C587.837945,269.757983 602.735179,276.839863 590.417546,291.926406 C580.27743,304.353425 559.320594,302.721037 554.36579,286.575305 C554.702228,286.100496 554.711179,286.107204 554.394884,286.596175 C530.322086,302.978194 510.704286,260.459335 539.74979,251.464803 C528.941276,244.072099 523.980504,227.98078 535.970652,218.442119 C524.295308,210.656598 524.77199,194.869394 536.096723,187.379045 C537.92363,186.167798 530.060993,171.076037 545.308093,169.521169 C556.290421,168.395641 568.038125,184.937172 571.517379,193.178121" id="Fill-54" fill="#F7CC45" mask="url(#mask-2)"></path>
                <path d="M516.078032,232.491239 C516.078032,232.491239 508.812926,234.461285 503.583601,232.914616 L498.355768,231.366456 C498.355768,231.366456 501.69254,240.736661 506.830855,239.699834 C511.974392,238.665243 516.078032,232.491239 516.078032,232.491239" id="Fill-55" fill="#FFFFFF" mask="url(#mask-2)"></path>
                <polygon id="Fill-56" fill="#F6C448" mask="url(#mask-2)" points="236.210688 492.045605 236.210688 486.312867 219.81627 486.312867 219.81627 536.273626 283.341749 536.273626 283.341749 492.045605"></polygon>
                <polygon id="Fill-57" fill="#F08A36" mask="url(#mask-2)" points="236.210688 486.312569 219.81627 486.312569 219.81627 496.548908 283.341749 496.548908 283.341749 492.045307 236.210688 492.045307"></polygon>
                <path d="M188.384149,103.664828 L118.871429,103.664828 C110.509731,103.664828 103.729513,110.439611 103.729513,118.796095 C103.729513,118.99064 103.751892,119.179967 103.758606,119.372276 L103.729513,119.372276 L103.729513,133.925871 L118.871429,133.925871 L132.572857,133.925871 L188.384149,133.925871 C196.745101,133.925871 203.526066,127.151088 203.526066,118.796095 C203.526066,110.439611 196.745101,103.664828 188.384149,103.664828" id="Fill-58" fill="#4E9EAD" mask="url(#mask-2)"></path>
                <polygon id="Fill-59" fill="#FFFFFF" mask="url(#mask-2)" points="113.439048 111.446623 191.891601 111.446623 191.891601 109.140409 113.439048 109.140409"></polygon>
                <polygon id="Fill-60" fill="#FFFFFF" mask="url(#mask-2)" points="113.439048 128.353391 191.891601 128.353391 191.891601 126.047177 113.439048 126.047177"></polygon>
                <polygon id="Fill-61" fill="#FFFFFF" mask="url(#mask-2)" points="113.439048 119.900007 149.589273 119.900007 149.589273 117.594538 113.439048 117.594538"></polygon>
                <polygon id="Fill-62" fill="#FFFFFF" mask="url(#mask-2)" points="155.742868 119.900007 191.891601 119.900007 191.891601 117.594538 155.742868 117.594538"></polygon>
                <polygon id="Fill-63" fill="#4E9EAD" mask="url(#mask-2)" points="79.2523936 98.1076286 84.5816797 84.5938423 78.0237633 71.8992315 108.761898 83.7746669"></polygon>
                <polygon id="Fill-64" fill="#4E9EAD" mask="url(#mask-2)" points="182.126341 504.952948 169.304424 511.797051 166.067614 525.711108 150.35726 496.766411"></polygon>
                <polygon id="Fill-65" fill="#4E9EAD" mask="url(#mask-2)" points="627.066683 192.47858 641.554374 193.683863 651.830259 183.75015 649.305114 216.582016"></polygon>
            </g>
            <text id="+" font-family="MyriadPro-Regular, Myriad Pro" font-size="66.2798" font-weight="normal" fill="#FF9800">
                <tspan x="165" y="72">+</tspan>
            </text>
            <text id="+" font-family="MyriadPro-Regular, Myriad Pro" font-size="66.2798" font-weight="normal" fill="#FF9800">
                <tspan x="400" y="526">+</tspan>
            </text>
            <text id="+" font-family="MyriadPro-Regular, Myriad Pro" font-size="66.2798" font-weight="normal" fill="#FF9800">
                <tspan x="595" y="197">+</tspan>
            </text>
            <text id="+" font-family="MyriadPro-Regular, Myriad Pro" font-size="46.8884" font-weight="normal" fill="#689800">
                <tspan x="390" y="230">+</tspan>
            </text>
            <text id="+" font-family="MyriadPro-Regular, Myriad Pro" font-size="46.8884" font-weight="normal" fill="#689800">
                <tspan x="414" y="319">+</tspan>
            </text>
            <text id="+" font-family="MyriadPro-Regular, Myriad Pro" font-size="46.8884" font-weight="normal" fill="#689800">
                <tspan x="279" y="459">+</tspan>
            </text>
            <text id="+" font-family="MyriadPro-Regular, Myriad Pro" font-size="46.8884" font-weight="normal" fill="#689800">
                <tspan x="233" y="254">+</tspan>
            </text>
            <g id="Group-71" transform="translate(609.000000, 99.000000)">
                <path d="M0.178387273,20.4733127 C0.178387273,9.27733091 9.25504182,0.200676364 20.4502782,0.200676364 C31.6470055,0.200676364 40.7244055,9.27733091 40.7244055,20.4733127 C40.7244055,31.6692945 31.6470055,40.7459491 20.4502782,40.7459491 C9.25504182,40.7459491 0.178387273,31.6692945 0.178387273,20.4733127" id="Fill-67" fill="#86B1F2"></path>
                <polyline id="Stroke-69" stroke="#FFFFFF" stroke-width="3.296" stroke-linecap="round" stroke-linejoin="round" points="8.57421818 19.0406982 19.2230364 29.2787709 35.6044 10.8488982"></polyline>
            </g>
        </g>
    </g>
</svg>