<svg xmlns="http://www.w3.org/2000/svg" xmlns:xlink="http://www.w3.org/1999/xlink" viewBox="0 0 500 373.72"><defs><style>.cls-1{fill:#b1b4c4;}.cls-2{fill:#d6d8e5;opacity:0.4;}.cls-3{fill:#616e84;}.cls-4{fill:#757b89;}.cls-5{fill:#20232d;}.cls-6,.cls-9{fill:#fff;}.cls-7{opacity:0.5;fill:url(#Безымянный_градиент_15);}.cls-8{fill:#2b303f;}.cls-9{opacity:0.1;}.cls-10{fill:#e9eaf2;}.cls-11{fill:#edeef7;}.cls-12{fill:#f8f9ff;}.cls-13{fill:#ff7b7b;}.cls-14{fill:#c1c4d3;}</style><linearGradient id="Безымянный_градиент_15" x1="260.38" y1="340.14" x2="260.38" y2="80.74" gradientUnits="userSpaceOnUse"><stop offset="0.21" stop-color="#fff" stop-opacity="0"/><stop offset="1" stop-color="#fff" stop-opacity="0.2"/></linearGradient></defs><title>Error notification_SVG</title><g id="Слой_2" data-name="Слой 2"><g id="Слой_1-2" data-name="Слой 1"><polygon class="cls-1" points="500 170.71 500 159.67 489.29 166.57 500 170.71"/><path class="cls-2" d="M131.79,369.6l-124.66-72c-10.56-6.1-9.24-16.75,3-23.79L311.22,100c12.2-7,30.64-7.8,41.2-1.71l124.66,72c10.56,6.09,9.23,16.74-3,23.78L173,367.89C160.79,374.93,142.35,375.7,131.79,369.6Z"/><path class="cls-1" d="M147.58,360.12l-124.66-72c-10.56-6.09-9.23-16.74,3-23.78L327,90.51c12.2-7,30.64-7.81,41.2-1.71l124.66,72c10.56,6.1,9.24,16.75-3,23.79L188.78,358.42C176.58,365.46,158.14,366.22,147.58,360.12Z"/><polygon class="cls-1" points="15.79 277.67 15.79 266.19 29.25 271.27 15.79 277.67"/><path class="cls-3" d="M147.58,350.41l-124.66-72c-10.56-6.1-9.23-16.75,3-23.79L327,80.79c12.2-7,30.64-7.8,41.2-1.71l124.66,72c10.56,6.09,9.24,16.74-3,23.78L188.78,348.7C176.58,355.74,158.14,356.51,147.58,350.41Z"/><ellipse class="cls-4" cx="36.82" cy="291.17" rx="1.34" ry="2.31" transform="translate(-140.66 57.42) rotate(-30)"/><ellipse class="cls-4" cx="42.82" cy="294.64" rx="1.34" ry="2.31" transform="translate(-141.59 60.89) rotate(-30)"/><ellipse class="cls-4" cx="48.82" cy="298.1" rx="1.34" ry="2.31" transform="translate(-142.52 64.35) rotate(-30)"/><ellipse class="cls-4" cx="54.82" cy="301.57" rx="1.34" ry="2.31" transform="translate(-143.45 67.82) rotate(-30)"/><ellipse class="cls-4" cx="106.34" cy="331.31" rx="1.34" ry="2.31" transform="translate(-151.41 97.56) rotate(-30)"/><ellipse class="cls-4" cx="112.34" cy="334.78" rx="1.34" ry="2.31" transform="translate(-152.34 101.03) rotate(-30)"/><ellipse class="cls-4" cx="118.34" cy="338.24" rx="1.34" ry="2.31" transform="translate(-153.27 104.49) rotate(-30)"/><ellipse class="cls-4" cx="124.34" cy="341.71" rx="1.34" ry="2.31" transform="translate(-154.2 107.96) rotate(-30)"/><path class="cls-4" d="M88.82,323.72,72.34,314.2a4.51,4.51,0,0,1-1.89-3.61h0c0-1.39.84-2,1.89-1.43l16.48,9.52a4.51,4.51,0,0,1,1.89,3.61h0C90.71,323.68,89.87,324.32,88.82,323.72Z"/><path class="cls-4" d="M462.27,198l-15.33,8.85c-1,.56-1.76,0-1.76-1.33h0a4.21,4.21,0,0,1,1.76-3.36l15.33-8.85c1-.56,1.75,0,1.75,1.33h0A4.21,4.21,0,0,1,462.27,198Z"/><path class="cls-4" d="M438.79,211.59l-15.33,8.85c-1,.56-1.76,0-1.76-1.33h0a4.2,4.2,0,0,1,1.76-3.35l15.33-8.85c1-.56,1.75,0,1.75,1.33h0A4.19,4.19,0,0,1,438.79,211.59Z"/><path class="cls-5" d="M147.58,348.64l-124.66-72c-10.56-6.1-9.23-16.74,3-23.78L327,79c12.2-7,30.64-7.81,41.2-1.71l124.66,72c10.56,6.1,9.24,16.75-3,23.79L188.78,346.94C176.58,354,158.14,354.74,147.58,348.64Z"/><path class="cls-6" d="M479.49,152.16l-48.67-28.1-.12.07c-5.75,3.32-15.07,3.32-20.82,0s-5.75-8.7,0-12L410,112l-48.67-28.1c-7.39-4.27-19.38-4.27-26.77,0L41.27,253.27c-7.39,4.27-7.39,11.19,0,15.45l118.15,68.22c7.4,4.27,19.38,4.27,26.77,0L479.49,167.61C486.88,163.35,486.88,156.43,479.49,152.16Z"/><path class="cls-7" d="M479.49,167.61,186.2,337c-6.68,3.85-17.13,4.22-24.53,1.1a22,22,0,0,1-2.23-1.1L41.28,268.72a12.48,12.48,0,0,1-4.15-3.6c-2.79-3.95-1.41-8.64,4.15-11.85L334.56,83.94c7.39-4.26,19.37-4.26,26.77,0L410,112.05a.34.34,0,0,0-.12.06c-5.75,3.32-5.75,8.7,0,12s15.08,3.32,20.82,0l.11-.07,48.68,28.1C486.88,156.43,486.88,163.34,479.49,167.61Z"/><ellipse class="cls-8" cx="417.09" cy="119.96" rx="5.59" ry="3.23"/><path class="cls-9" d="M415.44,120.92a1,1,0,0,1,0-1.91,3.64,3.64,0,0,1,3.31,0,1,1,0,0,1,0,1.91A3.64,3.64,0,0,1,415.44,120.92Z"/><polygon class="cls-10" points="437.13 143.23 435.02 142.01 438.55 139.97 440.66 141.2 437.13 143.23"/><polygon class="cls-10" points="439.96 144.86 437.84 143.64 442.78 140.79 444.9 142.01 439.96 144.86"/><polygon class="cls-10" points="442.78 146.49 440.66 145.27 447.72 141.2 449.84 142.42 442.78 146.49"/><polygon class="cls-10" points="445.6 148.12 443.49 146.9 453.37 141.2 455.49 142.42 445.6 148.12"/><polygon class="cls-10" points="454.78 153.42 451.49 151.52 458.07 147.72 461.37 149.62 454.78 153.42"/><polygon class="cls-10" points="459.17 155.96 455.88 154.06 462.47 150.25 465.76 152.15 459.17 155.96"/><polygon class="cls-10" points="463.56 158.49 460.27 156.59 466.86 152.79 470.15 154.69 463.56 158.49"/><polygon class="cls-10" points="447.44 168.53 434.95 175.79 315.31 106.72 327.81 99.46 447.44 168.53"/><polygon class="cls-10" points="226.09 188.63 179.73 215.58 153.77 200.6 200.14 173.65 226.09 188.63"/><polygon class="cls-10" points="278.91 194.06 210.9 233.58 184.95 218.6 252.95 179.08 278.91 194.06"/><polygon class="cls-10" points="329.3 200.89 242.08 251.58 216.12 236.59 303.34 185.9 329.3 200.89"/><polygon class="cls-10" points="377.33 209.09 273.25 269.58 247.29 254.59 351.37 194.11 377.33 209.09"/><polygon class="cls-10" points="256.51 279.49 244.01 286.75 124.38 217.68 136.87 210.42 256.51 279.49"/><polygon class="cls-10" points="234.34 292.37 221.84 299.64 102.2 230.57 114.7 223.3 234.34 292.37"/><polygon class="cls-10" points="212.17 305.26 199.67 312.52 80.03 243.45 92.53 236.18 212.17 305.26"/><polygon class="cls-10" points="190 318.14 177.5 325.4 57.86 256.33 70.36 249.07 190 318.14"/><polygon class="cls-10" points="403.11 194.3 390.6 201.56 270.97 132.49 283.47 125.22 403.11 194.3"/><polygon class="cls-10" points="425.28 181.41 412.77 188.68 293.14 119.61 305.64 112.34 425.28 181.41"/><path class="cls-11" d="M332,61.06,228.83,1.49c-2.79-1.61-5.34-1.87-7.28-1h0a5.24,5.24,0,0,0-.77.43L210,6.89l7.84,11V95.78c0,7,4.92,15.52,11,19l40.42,23.33,4.92,12.69L269,173.27l11.41-6.34L291.59,151l35,20.22,1.23,10.49,11.3-6.3c2.35-1,3.85-3.55,3.85-7.41V80.08C343,73.08,338.08,64.56,332,61.06Z"/><path class="cls-12" d="M320.6,67.4,217.42,7.83c-6.06-3.5-11-.66-11,6.34v88c0,7,4.92,15.52,11,19l40.42,23.33L269,173.27l11.17-15.9,40.42,23.34c6.07,3.5,11,.66,11-6.34V86.42C331.58,79.42,326.67,70.9,320.6,67.4Z"/><path class="cls-13" d="M269.58,50.5c13.15,7.6,23.78,26,23.73,41.11s-10.73,21.21-23.88,13.61-23.78-26-23.73-41.1S256.44,42.91,269.58,50.5Zm13,44.3-8.13-14.08,8.19-4.67-4.92-8.52-8.19,4.67-8.13-14.09-4.95,2.82L264.58,75l-8.19,4.67,4.91,8.51,8.19-4.67,8.13,14.09,4.95-2.82"/><polygon class="cls-6" points="277.71 67.53 282.63 76.05 274.44 80.72 282.57 94.8 277.62 97.62 269.49 83.53 261.3 88.19 256.39 79.69 264.58 75.02 256.44 60.93 261.39 58.11 269.52 72.2 277.71 67.53"/><polygon class="cls-14" points="297.21 141.53 297.19 149.28 237.88 115.03 237.9 107.29 297.21 141.53"/><polygon class="cls-14" points="300.47 129.83 300.45 137.58 234.69 99.62 234.71 91.87 300.47 129.83"/></g></g></svg>